<?xml version="1.0" standalone="no"?>
<!DOCTYPE svg PUBLIC "-//W3C//DTD SVG 20010904//EN"
 "http://www.w3.org/TR/2001/REC-SVG-20010904/DTD/svg10.dtd">
<svg version="1.0" xmlns="http://www.w3.org/2000/svg"
 width="1254.000000pt" height="1254.000000pt" viewBox="0 0 1254.000000 1254.000000"
 preserveAspectRatio="xMidYMid meet">
<metadata>
Created by potrace 1.16, written by Peter Selinger 2001-2019
</metadata>
<g transform="translate(0.000000,1254.000000) scale(0.100000,-0.100000)"
fill="#ffffff" stroke="none">
<path d="M8725 9640 c-22 -5 -53 -13 -68 -19 -36 -14 -50 -14 -41 0 8 13 -1
11 -95 -15 -32 -9 -68 -29 -86 -46 -19 -18 -38 -28 -47 -25 -8 3 -21 -2 -29
-11 -13 -16 -12 -17 6 -11 17 6 17 4 -4 -13 -13 -11 -31 -20 -41 -20 -10 0
-46 -23 -81 -51 -78 -61 -91 -74 -66 -66 27 10 20 -6 -19 -44 -20 -18 -70 -76
-111 -126 -42 -51 -78 -93 -80 -93 -3 0 1 9 8 20 92 130 119 171 119 178 0 5
20 30 45 55 25 26 45 54 45 62 0 21 -3 20 -50 -20 -60 -50 -63 -34 -5 25 27
28 43 50 35 50 -27 0 -237 -148 -284 -201 -119 -132 -372 -527 -600 -939 -191
-343 -642 -1266 -963 -1969 -148 -324 -243 -531 -433 -941 -106 -228 -201
-434 -212 -458 -11 -24 -22 -42 -24 -39 -11 11 -141 511 -230 887 -195 825
-253 1040 -325 1223 -126 317 -266 486 -494 599 -117 59 -242 94 -469 134
-184 32 -246 49 -332 89 -141 64 -204 152 -204 281 0 227 205 544 510 788 174
140 446 301 653 387 75 31 91 44 63 55 -29 11 -390 -90 -610 -172 -337 -126
-825 -375 -951 -486 -24 -21 -50 -38 -58 -38 -28 0 -222 -163 -362 -304 -77
-78 -169 -182 -203 -231 -274 -388 -269 -792 11 -930 126 -62 183 -69 517 -68
208 2 325 -2 396 -12 242 -34 385 -133 492 -342 94 -184 147 -363 340 -1138
185 -740 295 -1129 458 -1612 118 -349 192 -511 281 -614 50 -59 205 -241 210
-248 2 -2 5 -2 7 0 2 2 -24 41 -59 87 -34 46 -67 93 -73 105 -156 319 -283
654 -397 1053 -64 221 -139 546 -132 568 3 10 63 -169 137 -413 18 -57 34
-111 37 -120 4 -14 3 -14 -6 -1 -5 8 -13 11 -16 8 -11 -10 5 -84 21 -105 14
-16 15 -14 9 27 -3 24 -4 42 -1 39 3 -3 44 -120 90 -260 95 -287 105 -314 111
-307 4 4 -37 139 -108 358 -46 140 -95 324 -142 535 -26 116 -53 226 -61 245
-15 42 -108 470 -102 475 2 2 32 -112 66 -253 125 -511 313 -1150 366 -1249
24 -45 19 -24 -38 148 -106 319 -209 693 -204 739 2 17 10 2 25 -50 20 -72 77
-236 197 -574 32 -87 73 -192 92 -233 37 -80 40 -99 23 -136 -9 -20 -8 -30 7
-53 15 -22 20 -24 22 -11 6 31 19 18 46 -45 60 -140 72 -165 97 -208 15 -25
46 -76 68 -115 23 -38 44 -81 47 -95 9 -42 46 -119 67 -137 20 -18 20 -18 3
15 -35 68 -8 37 83 -99 93 -138 136 -184 67 -72 -50 81 -45 87 10 13 72 -95
139 -165 228 -236 82 -66 253 -184 267 -184 4 0 -16 24 -44 52 -129 131 -405
601 -527 897 -54 132 -64 190 -13 75 17 -38 53 -105 80 -149 127 -205 146
-235 150 -231 2 2 -18 50 -45 107 -98 205 -113 241 -109 252 2 6 25 -29 52
-79 178 -327 438 -673 569 -760 48 -31 39 -6 -28 73 -129 153 -326 464 -326
513 l0 23 18 -24 c10 -13 42 -64 72 -114 56 -94 128 -199 168 -244 41 -46 8
10 -53 90 -54 70 -135 200 -135 214 0 19 35 -26 81 -102 28 -46 53 -82 56 -80
2 3 -10 33 -27 67 -44 88 -30 86 19 -2 46 -83 56 -67 12 20 -16 32 -41 86 -55
121 l-26 65 25 -24 c32 -30 32 -15 0 80 -14 40 -25 85 -25 99 l0 25 20 -22
c31 -33 43 -28 37 18 -3 25 -1 39 6 37 7 -1 10 15 9 43 -2 39 -1 43 11 28 11
-14 15 -13 32 15 20 34 20 33 10 60 -6 13 -3 16 9 11 18 -7 17 9 -6 84 -11 37
-3 76 11 53 11 -18 9 -23 119 229 144 330 514 1138 753 1646 296 631 376 799
525 1109 197 410 479 971 613 1215 55 102 101 192 101 200 0 8 16 35 35 59 19
24 40 61 45 83 6 21 14 37 18 34 4 -2 20 18 35 45 16 27 23 49 17 49 -6 0 1
23 16 51 14 28 23 54 19 57 -3 3 -25 -13 -48 -36 -71 -70 -79 -51 -15 36 46
61 128 200 128 216 0 5 -12 -1 -26 -15 -25 -22 -26 -22 -16 -3 6 12 34 41 62
64 55 46 72 87 21 51 -16 -12 -32 -21 -36 -21 -14 0 25 43 61 67 59 41 74 56
74 76 0 16 -2 17 -15 7 -17 -14 -30 -8 -23 12 3 7 7 18 9 23 2 6 19 23 36 39
40 34 42 48 6 41 -27 -6 -28 -6 -8 11 l20 17 -20 -8 c-42 -16 -55 -17 -55 -6
0 15 109 85 166 107 57 22 58 39 2 30 -65 -10 -183 -70 -219 -111 -35 -39 -96
-77 -86 -54 22 55 22 52 -9 45 -27 -7 -28 -7 -11 12 9 10 40 29 67 42 47 22
64 40 39 40 -11 0 44 49 92 82 l24 17 -34 0 -35 1 45 28 c24 16 77 43 117 62
69 32 90 50 56 50 -8 0 -13 4 -10 9 13 20 -73 26 -149 11z m-185 -55 c0 -6
-62 -45 -72 -45 -20 0 -4 23 25 35 35 15 47 18 47 10z m-613 -327 c-57 -57
-119 -121 -137 -143 -41 -51 -28 -27 24 45 55 75 113 137 160 172 74 53 58 28
-47 -74z m93 -282 c0 -2 -7 -9 -15 -16 -13 -11 -14 -10 -9 4 5 14 24 23 24 12z
m-62 -76 c-7 -10 -14 -17 -17 -15 -4 4 18 35 25 35 2 0 -1 -9 -8 -20z m-69
-97 c-13 -21 -55 -85 -95 -143 -227 -333 -567 -980 -947 -1802 -50 -109 -92
-196 -94 -194 -6 6 274 619 409 896 276 566 494 951 671 1187 73 98 94 119 56
56z m-4999 -428 c-47 -47 -89 -85 -95 -85 -5 0 28 38 75 85 47 47 89 85 95 85
5 0 -28 -38 -75 -85z m520 -174 c-25 -78 -27 -215 -5 -268 19 -45 19 -49 -2
-32 -27 23 -53 91 -53 140 0 43 33 159 60 209 20 38 20 17 0 -49z m1237 -2713
c-3 -8 -6 -5 -6 6 -1 11 2 17 5 13 3 -3 4 -12 1 -19z"/>
<path d="M8796 9324 c-11 -7 -18 -16 -15 -18 2 -2 13 2 23 10 11 7 18 16 15
18 -2 2 -13 -2 -23 -10z"/>
<path d="M9324 8590 c-12 -5 -25 -13 -28 -19 -4 -5 -7 -1224 -7 -2708 l0
-2698 22 -17 c17 -15 41 -18 126 -18 117 0 153 12 172 57 8 21 11 701 9 2700
-3 2549 -4 2673 -21 2690 -15 15 -38 18 -135 20 -64 2 -127 -2 -138 -7z"/>
<path d="M6240 2985 c0 -10 53 -85 57 -81 3 2 -8 23 -23 45 -25 39 -34 48 -34
36z"/>
</g>
</svg>
