<?xml version="1.0" standalone="no"?>
<!DOCTYPE svg PUBLIC "-//W3C//DTD SVG 20010904//EN"
 "http://www.w3.org/TR/2001/REC-SVG-20010904/DTD/svg10.dtd">
<svg version="1.0" xmlns="http://www.w3.org/2000/svg"
 width="1254.000000pt" height="1254.000000pt" viewBox="0 0 1254.000000 1254.000000"
 preserveAspectRatio="xMidYMid meet">
<metadata>
Created by potrace 1.16, written by Peter Selinger 2001-2019
</metadata>
<g transform="translate(0.000000,1254.000000) scale(0.100000,-0.100000)"
fill="#ffffff" stroke="none">
<path d="M4227 9890 c-513 -122 -1167 -427 -1522 -710 -103 -82 -264 -238
-326 -316 -215 -270 -224 -579 -24 -779 163 -164 429 -251 869 -285 239 -19
467 -10 796 31 485 59 866 140 2330 493 938 226 1606 367 2305 486 243 41 482
89 525 105 19 7 57 16 83 19 26 3 69 14 95 25 26 11 92 32 147 47 141 38 145
43 30 45 -99 1 -100 1 -60 15 36 13 22 14 -145 9 -102 -3 -246 -9 -320 -14
-286 -21 -335 -23 -330 -18 6 6 350 42 550 57 243 18 369 30 510 50 74 11 158
20 185 21 28 0 59 4 70 9 17 7 16 9 -10 11 -22 1 118 20 208 28 4 1 7 6 7 11
0 6 -15 10 -32 11 -28 1 -23 4 25 16 31 8 57 18 57 22 0 21 -222 67 -385 81
-125 11 -188 20 -182 26 2 2 118 8 258 14 297 11 387 19 369 30 -7 4 -50 11
-96 15 -109 9 -119 25 -12 18 62 -4 80 -3 72 6 -12 13 -134 41 -182 41 -18 0
-42 5 -52 10 -65 35 -530 80 -530 51 0 -5 -114 -7 -277 -4 -511 10 -1169 -37
-1833 -132 -558 -80 -1196 -206 -2320 -460 -1218 -275 -1561 -317 -1758 -216
-53 27 -109 92 -122 141 -47 173 201 502 540 720 155 99 424 216 598 260 36 9
41 14 32 26 -7 8 -15 14 -19 13 -3 -1 -59 -14 -124 -29z m5643 -356 c117 -16
147 -24 93 -24 -49 0 -407 41 -413 47 -8 9 194 -5 320 -23z m-1372 -221 c-10
-2 -28 -2 -40 0 -13 2 -5 4 17 4 22 1 32 -1 23 -4z m-93 -10 c-594 -79 -969
-140 -1532 -249 -155 -30 -285 -54 -289 -54 -56 0 305 75 742 155 291 53 783
128 964 148 47 5 153 5 115 0z m252 -269 c-3 -3 -12 -4 -19 -1 -8 3 -5 6 6 6
11 1 17 -2 13 -5z m-5613 -49 c-22 -53 -30 -165 -14 -196 12 -22 12 -23 -3
-11 -23 19 -40 78 -33 115 7 38 54 142 61 135 3 -3 -2 -22 -11 -43z m3506 5
c-14 -4 -36 -8 -50 -8 -22 0 -22 1 5 8 17 4 39 8 50 8 16 0 15 -2 -5 -8z m-83
-16 c-3 -3 -12 -4 -19 -1 -8 3 -5 6 6 6 11 1 17 -2 13 -5z m-50 -10 c-3 -3
-12 -4 -19 -1 -8 3 -5 6 6 6 11 1 17 -2 13 -5z"/>
<path d="M7920 8519 c-42 -17 -69 -50 -85 -105 -32 -111 -65 -300 -110 -629
l-47 -340 -71 -130 c-292 -535 -560 -924 -952 -1380 -454 -528 -1036 -1014
-1469 -1224 -274 -134 -446 -187 -632 -198 -86 -5 -112 -2 -172 16 -150 45
-178 160 -98 408 143 440 570 960 1141 1387 272 204 500 345 760 472 336 164
572 229 738 205 91 -13 136 -37 172 -94 17 -25 33 -46 37 -46 16 -2 87 107
108 164 63 174 16 359 -130 506 -101 102 -226 168 -399 212 -72 18 -114 21
-266 21 -158 0 -195 -3 -307 -27 -475 -103 -1032 -373 -1492 -725 -388 -298
-745 -673 -970 -1020 -345 -532 -435 -1079 -252 -1529 75 -183 222 -370 391
-496 111 -83 295 -170 441 -209 116 -31 125 -32 334 -32 196 0 226 2 341 27
405 86 762 259 1167 566 339 256 565 474 818 786 188 233 291 377 200 280 -58
-61 -51 -46 32 68 35 48 70 87 78 87 20 0 154 208 279 435 22 39 56 113 77
165 l37 95 -7 -120 c-4 -66 -7 -273 -6 -460 0 -384 17 -587 80 -955 79 -468
224 -919 372 -1154 40 -64 273 -349 279 -342 2 2 -26 45 -62 95 -36 50 -72
105 -79 123 -8 18 -43 98 -79 178 -71 161 -193 510 -231 665 -71 284 -96 635
-87 1225 l4 215 8 -150 c8 -140 56 -612 64 -625 2 -3 22 -107 45 -230 71 -393
149 -706 190 -770 14 -21 13 -14 -11 70 -11 41 -29 109 -40 150 -26 99 -124
594 -139 695 -6 44 -18 126 -27 182 -8 56 -13 107 -11 115 3 7 10 -21 17 -62
15 -99 54 -259 135 -565 197 -737 214 -787 347 -1042 43 -84 79 -159 79 -168
0 -20 45 -98 67 -117 14 -12 14 -9 -1 20 -29 55 -11 35 55 -60 78 -117 120
-170 126 -164 3 3 -6 20 -20 38 -13 18 -32 47 -42 63 -15 27 -14 27 12 -5 129
-158 202 -228 370 -354 140 -105 158 -110 73 -20 -111 118 -327 449 -444 683
-52 103 -170 424 -163 444 3 10 20 -29 84 -197 49 -131 185 -377 199 -363 3 3
-14 40 -39 84 -98 174 -87 166 48 -34 185 -274 348 -473 479 -584 65 -55 202
-136 212 -126 3 3 -32 31 -78 63 -105 74 -199 170 -296 303 -70 97 -140 211
-129 211 3 0 39 -49 80 -108 74 -107 284 -348 295 -338 6 6 -3 18 -79 106 -55
64 -100 129 -153 223 -39 68 -24 58 25 -18 70 -108 62 -73 -13 58 -86 149
-124 230 -182 389 -114 316 -205 722 -251 1123 -63 549 -35 1342 75 2130 11
77 33 241 50 365 17 124 47 331 67 460 21 129 36 252 35 273 -5 101 -76 235
-172 320 -99 90 -333 220 -524 291 -54 21 -102 34 -106 29 -5 -4 -13 -28 -18
-53 -10 -44 -10 -44 -11 -10 -1 48 -24 77 -69 90 -45 12 -69 12 -102 -1z m926
-789 c-9 -74 -28 -207 -41 -295 -31 -202 -81 -571 -95 -695 -6 -52 -17 -147
-25 -210 -7 -63 -17 -167 -21 -230 -8 -127 -22 -199 -23 -120 -2 121 53 644
100 955 11 72 29 193 40 270 11 77 26 181 34 230 8 50 17 117 20 150 9 87 18
125 23 100 2 -10 -3 -80 -12 -155z m-2128 -122 c29 -6 56 -16 59 -21 4 -6 -5
-7 -23 -4 -16 4 -84 10 -151 13 -117 7 -155 17 -95 27 37 6 145 -2 210 -15z
m175 -48 c30 -11 64 -32 77 -45 l24 -26 -59 29 c-33 16 -76 36 -95 45 -51 23
-10 20 53 -3z m326 -520 c0 -22 -2 -21 -14 10 -18 47 -18 71 0 40 8 -14 14
-36 14 -50z m1428 -957 c-3 -10 -5 -4 -5 12 0 17 2 24 5 18 2 -7 2 -21 0 -30z
m0 -80 c-3 -10 -5 -2 -5 17 0 19 2 27 5 18 2 -10 2 -26 0 -35z m-5104 -1045
c-8 -212 24 -372 112 -556 50 -105 58 -135 19 -79 -99 147 -165 418 -150 626
6 91 15 151 22 151 1 0 0 -64 -3 -142z m1827 -258 c-66 -51 -426 -216 -452
-208 -6 2 45 27 113 56 68 29 174 79 234 111 114 61 148 74 105 41z m750 -134
c0 -6 -207 -178 -307 -255 -46 -35 -83 -66 -83 -67 0 -2 7 -1 15 2 8 4 15 3
15 -1 0 -18 -117 -95 -153 -100 -12 -1 -56 -17 -97 -34 -61 -26 -349 -121
-366 -121 -16 0 10 19 33 25 145 35 588 290 848 486 91 70 95 72 95 65z m2927
-1428 c64 -94 69 -103 55 -94 -18 11 -120 166 -109 166 2 0 26 -33 54 -72z"/>
<path d="M10186 8318 c-14 -20 -16 -254 -16 -2294 0 -2187 1 -2272 18 -2287
40 -36 158 -15 220 39 l37 32 3 2250 c2 2039 1 2252 -14 2266 -12 13 -38 16
-124 16 -101 0 -110 -2 -124 -22z"/>
<path d="M7828 5033 c-7 -29 15 -229 42 -385 20 -123 21 -134 11 -118 -8 11
-11 -3 -11 -51 0 -45 5 -70 14 -78 11 -10 16 -6 24 16 9 26 10 24 21 -32 30
-147 138 -531 147 -522 2 2 -25 118 -60 258 -111 443 -133 556 -174 879 -7 57
-9 61 -14 33z"/>
<path d="M9320 2811 c0 -10 86 -91 96 -91 7 0 -9 21 -55 73 -25 27 -41 35 -41
18z"/>
</g>
</svg>
